<?xml version="1.0" ?><svg style="enable-background:new 0 0 16 16;" version="1.1" viewBox="0 0 16 16" xml:space="preserve" xmlns="http://www.w3.org/2000/svg" xmlns:xlink="http://www.w3.org/1999/xlink"><style type="text/css">
	.st0{display:none;}
</style><g class="st0" id="grid"/><g id="Layer_2"><g><path d="M8,9C6,9,4,7,4,5s2-4,4-4s4,2,4,4S10,9,8,9z M8,3C7,3,6,4,6,5s1,2,2,2s2-1,2-2S9,3,8,3z"/></g><g><path d="M14,15H2c-0.55,0-1-0.45-1-1v-1.25c0-1.97,0.86-3.83,2.35-5.12c0.42-0.36,1.05-0.31,1.41,0.1    c0.36,0.42,0.31,1.05-0.11,1.41C3.6,10.06,3,11.37,3,12.75V13h10v-0.25c0-1.38-0.6-2.7-1.65-3.6c-0.42-0.36-0.47-0.99-0.11-1.41    c0.36-0.42,0.99-0.47,1.41-0.1C14.14,8.92,15,10.79,15,12.75V14C15,14.55,14.55,15,14,15z"/></g></g></svg>